<?xml version="1.0" encoding="UTF-8"?>
<svg id="Layer_2" data-name="Layer 2" xmlns="http://www.w3.org/2000/svg" viewBox="0 0 822.77 754.32">
  <defs>
    <style>
      .cls-1, .cls-2, .cls-3 {
        fill: none;
      }

      .cls-2 {
        stroke: #000;
      }

      .cls-2, .cls-3 {
        stroke-linecap: round;
        stroke-linejoin: round;
        stroke-width: 32px;
      }

      .cls-3 {
        stroke: #f60;
      }
    </style>
  </defs>
  <g>
    <path class="cls-1" d="M754.58,216.37c-37.6,0-68.19-30.59-68.19-68.19,0-8.84,7.16-16,16-16s16,7.16,16,16c0,19.96,16.24,36.19,36.19,36.19s36.19-16.24,36.19-36.19c0-8.84,7.16-16,16-16s16,7.16,16,16c0,37.6-30.59,68.19-68.19,68.19Z"/>
    <path class="cls-1" d="M68.19,643.41c-37.6,0-68.19-30.59-68.19-68.19,0-8.84,7.16-16,16-16s16,7.16,16,16c0,19.96,16.24,36.19,36.19,36.19s36.19-16.24,36.19-36.19c0-8.84,7.16-16,16-16s16,7.16,16,16c0,37.6-30.59,68.19-68.19,68.19Z"/>
    <path class="cls-1" d="M593.89,84.19c-37.6,0-68.19-30.59-68.19-68.19,0-8.84,7.16-16,16-16s16,7.16,16,16c0,19.96,16.24,36.19,36.19,36.19s36.19-16.24,36.19-36.19c0-8.84,7.16-16,16-16s16,7.16,16,16c0,37.6-30.59,68.19-68.19,68.19Z"/>
    <path class="cls-1" d="M243.84,670.13c37.6,0,68.19,30.59,68.19,68.19,0,8.84-7.16,16-16,16s-16-7.16-16-16c0-19.96-16.24-36.19-36.19-36.19s-36.19,16.24-36.19,36.19c0,8.84-7.16,16-16,16s-16-7.16-16-16c0-37.6,30.59-68.19,68.19-68.19Z"/>
  </g>
  <g>
    <path class="cls-2" d="M485.37,129.75s105.73,138.53,40.97,295.71c-64.76,157.18-186.04,209.28-251.34,224.8-82.28,19.56-158.17-39.01-104.89-139.64,85.11-160.73,436.56-201.72,436.56-201.72"/>
    <path class="cls-3" d="M461.95,211.39c0,28.83-23.37,52.19-52.19,52.19s-52.19-23.37-52.19-52.19"/>
    <circle cx="327.58" cy="287.45" r="16"/>
    <path class="cls-2" d="M670.42,145.51s-42.69,119.2-66.85,100.68c-24.16-18.52-10.47-145.78-10.47-145.78"/>
  </g>
</svg>